<svg xmlns="http://www.w3.org/2000/svg" viewBox="0 0 680.51 307.4"><defs><style>.cls-1,.cls-6{fill:#fff;}.cls-1{stroke:#e20074;stroke-width:4px;}.cls-1,.cls-7,.cls-8{stroke-miterlimit:10;}.cls-2{fill:#e47041;}.cls-3{fill:#161616;}.cls-4{fill:#e20074;}.cls-5{fill:#f25ea3;}.cls-7,.cls-8{fill:none;stroke:#fff;stroke-linecap:round;stroke-width:13px;}.cls-8{stroke-dasharray:0.1 22.54;}.cls-9{fill:#0d0b0c;}</style></defs><g id="Capa_2" data-name="Capa 2"><g id="Capa_1-2" data-name="Capa 1"><rect class="cls-1" x="2.47" y="5.51" width="675.27" height="298.4" rx="5.71"/><g id="BAJO"><path class="cls-2" d="M.47,154.78V276c0,16.48,15,29.84,33.53,29.84H509V154.78H.47Z"/><path class="cls-2" d="M.47,276.37v25.74s-.07,4.26,5.82,3.75H33.65"/><path class="cls-3" d="M106.1,154.7h86.82c-34.85,14.11-34.3,31.3,0,50.09,0,0,96.69,50.5,316,47v12.05S232,277.32,131,181.94c-9.89,1.55-77.9,36.71-79.48,40.06,0,0-3.63,8.84,106.69,83.58H135s-16.36-10.78-95.5-77.42c0,0-29,13.4-39,22.24V233.79A315.16,315.16,0,0,0,27.06,215.3s-9.65-11.92-20-20.22a49.61,49.61,0,0,0,14.54-5.4s10.1,15.11,16.57,18.12c0,0,3.89,1.11,9.3-2.41l70.72-36S109.77,158.08,106.1,154.7Z"/><path class="cls-3" d="M.47,269v11.25S16.65,294.1,25,305.75l10,.15S26.38,291.48.47,269Z"/></g><g id="ARRIBA"><path class="cls-4" d="M509,154.7V6.85H37.2c-18.24,0-33,12.87-33,28.74V154.7Z"/><path class="cls-4" d="M34.37,7S3.18,5.82,5.07,8.57c-2.14.15-.89,21.85-.89,25.32"/></g><g id="IZQ"><rect class="cls-5" x="508.95" y="3.33" width="168.92" height="302.58"/><path class="cls-5" d="M677.87,305.9s2.63-.07,2.63-4V7.62s.29-3.82-2.63-4.29"/></g><path id="HUECO" class="cls-6" d="M.24,110.7H0v84.92H.24a42.47,42.47,0,1,0,0-84.94Z"/><g id="DOTTED_LINE" data-name="DOTTED LINE"><line class="cls-7" x1="508.95" y1="6.5" x2="508.95" y2="6.55"/><line class="cls-8" x1="508.95" y1="29.09" x2="508.95" y2="289.58"/><line class="cls-7" x1="508.95" y1="300.85" x2="508.95" y2="300.9"/></g><g id="COD_BARRAS" data-name="COD BARRAS"><path class="cls-6" d="M556,279.1h-3.34V244.44H556Z"/><path class="cls-6" d="M599.58,244.45h3.34v34.66h-3.34Z"/><path class="cls-6" d="M551.09,279.1h-3.34V244.45h3.34Z"/><path class="cls-6" d="M615.2,279.1h-3.33V244.45h3.34Z"/><path class="cls-6" d="M649.77,279.09h-3.33V244.52h3.33Z"/><path class="cls-6" d="M654.67,279.1h-3.34V244.44h3.34Z"/><path class="cls-6" d="M560.19,279.08V244.47h.62v34.62Z"/><path class="cls-6" d="M565.14,279.09V244.47h.62v34.62Z"/><path class="cls-6" d="M570.75,244.47v34.61h-.62V244.47Z"/><path class="cls-6" d="M573.21,244.47v34.61h-.61V244.47Z"/><path class="cls-6" d="M578.15,244.47v34.61h-.62V244.47Z"/><path class="cls-6" d="M579.93,279.08V244.47h.62v34.62Z"/><path class="cls-6" d="M584.89,279.08V244.46h.62v34.62Z"/><path class="cls-6" d="M590.48,244.47v34.61h-.62V244.47Z"/><path class="cls-6" d="M592.19,279.09V244.47h.59v34.62Z"/><path class="cls-6" d="M597.84,244.46v34.62h-.54V244.47Z"/><path class="cls-6" d="M609.46,279.08V244.47h.61v34.62Z"/><path class="cls-6" d="M540.47,279.08V244.47h.62v34.62Z"/><path class="cls-6" d="M617.58,244.47v34.61H617V244.47Z"/><path class="cls-6" d="M620.07,244.47v34.61h-.61V244.47Z"/><path class="cls-6" d="M625,244.47v34.61h-.61V244.47Z"/><path class="cls-6" d="M629.24,279.08V244.47h.61v34.62Z"/><path class="cls-6" d="M631.71,279.08V244.47h.62v34.62Z"/><path class="cls-6" d="M637.29,244.47v34.62h-.61V244.47Z"/><path class="cls-6" d="M639.13,279.09V244.47h.57v34.63Z"/><path class="cls-6" d="M644,279.08V244.47h.61v34.62Z"/><path class="cls-6" d="M546.08,244.46v34.62h-.6V244.46Z"/><path class="cls-6" d="M558.42,244.47v34.61h-.62V244.47Z"/><path class="cls-6" d="M656.37,279.08V244.47H657v34.62Z"/><path class="cls-6" d="M607.74,244.47v34.61h-.61V244.47Z"/></g><g id="LOGO_BYN" data-name="LOGO BYN"><path class="cls-9" d="M647.44,73.08l-.55-1.28-1.54-3.56-1.46,2.08a74.69,74.69,0,0,0,2.27-8.58l0-.11.06-.35,0-.34,0-.13c-1.31-9.84-4-15.32-4.12-15.55l-.91-1.82-2.54-5.1-1.5,5.5-.54,2a70.35,70.35,0,0,1-8,17.33c-7.15,11-15.9,16.67-26,16.82H596c-10.1-.14-18.84-5.79-26-16.79a70.42,70.42,0,0,1-8-17.37l-.54-2-1.5-5.5-2.54,5.11-.91,1.82c-.11.22-2.81,5.7-4.12,15.54v.13l0,.34.06.35,0,.12a73.42,73.42,0,0,0,2.28,8.59l-1.48-2.1-1.54,3.56-.55,1.28c-.28.65-2.68,6.66-.14,16.12l0,.1.07.28.15.26,0,.09a56.39,56.39,0,0,0,5.3,7.28c.4.47.8.93,1.2,1.37l-.52-.25-3.41-1.67.28,3.79.11,1.35c.08,1.08,1,10.65,8.42,15.09l.06,0,.06,0,.09.05.07,0,.06,0a45.34,45.34,0,0,0,8.88,2.67c-.73.52-1.21.85-1.22.85l-.91.63L567.22,123l2.51,1.8.89.64a18.11,18.11,0,0,0,10.8,3.32,28.11,28.11,0,0,0,8.65-1.49,66.1,66.1,0,0,1-2.76,6.94l-.55,1.07-1.53,3,3.36.17,1.2.06h.51a17.23,17.23,0,0,0,3.28-.32,16.69,16.69,0,0,0,3.47,6.18l.59.68,1.64,1.9,1.65-1.9.58-.68a16.69,16.69,0,0,0,3.47-6.18,17.23,17.23,0,0,0,3.28.32h.51l1.2-.06,3.36-.17-1.53-3-.55-1.07a66.1,66.1,0,0,1-2.76-6.94,28.11,28.11,0,0,0,8.65,1.49,18.11,18.11,0,0,0,10.8-3.32l.89-.64,2.51-1.8-2.53-1.76-.91-.62-1.22-.86a45.34,45.34,0,0,0,8.88-2.67l.07,0,.06,0,.09-.05.06,0,.06,0c7.4-4.44,8.34-14,8.42-15.09l.11-1.35.28-3.79-3.41,1.67-.51.25a56.58,56.58,0,0,0,6.49-8.66l.05-.08.15-.26.07-.28,0-.1C650.12,79.74,647.72,73.73,647.44,73.08Zm-3.43,15c-.68,1.12-7.84,12.66-17.09,16.18l-2.78,1.06,3,.44a11.2,11.2,0,0,0,1.58.11c4.19,0,9.36-2,11.74-3-.46,2.56-1.95,8.11-6.38,10.8-.6.25-6.92,2.87-12.52,2.87a12.78,12.78,0,0,1-3.79-.51l-4.16-1.3,3.46,2.66c2,1.54,6,4.34,7.81,5.61a14.69,14.69,0,0,1-7.69,2c-6.83,0-13.11-3.83-13.17-3.87l-1.78-1.1.63,2c.12.37,2.64,8.39,4.57,12.69a7.89,7.89,0,0,1-4.34-1.34l-1.52-1.31.25,2c0,.14.37,3.35-2.5,7.11-2.87-3.76-2.51-7-2.5-7.11l.27-2-1.54,1.33a7.89,7.89,0,0,1-4.33,1.34c1.92-4.3,4.44-12.32,4.56-12.69l.63-2-1.78,1.1c-.06,0-6.32,3.87-13.17,3.87a14.69,14.69,0,0,1-7.69-2c1.81-1.27,5.8-4.07,7.81-5.61l3.46-2.66-4.16,1.3a12.78,12.78,0,0,1-3.79.51c-5.6,0-11.92-2.62-12.52-2.87-4.43-2.69-5.92-8.24-6.38-10.8,2.38,1,7.55,3,11.74,3a11.2,11.2,0,0,0,1.58-.11l2.95-.44-2.78-1.06c-9.25-3.52-16.41-15.06-17.09-16.18A25,25,0,0,1,554.11,76c8.06,11,12.92,11.93,13.13,12l2.52.42-1.85-1.75c-8.11-7.68-11.51-23.88-11.82-25.43A58.69,58.69,0,0,1,559,48.85a75.68,75.68,0,0,0,7.83,16.32c7.81,12,17.93,18.42,29.28,18.52l-1.42,2.51-6.6-3.51,2.09,2.79c1,1.29.22,3.16,0,3.61a18,18,0,0,0-2.86,3.76A11.37,11.37,0,0,0,586,102c1.21,3.86,4.83,6.59,7.81,7.86l.08,0,.09,0a1.44,1.44,0,0,0,.84-.09l3.34,5.53,1.09,1.93,1.08-1.91,3.35-5.55a1.15,1.15,0,0,0,.53.12l.31,0,.09,0,.09,0c3-1.27,6.59-4,7.8-7.86,2-6.47-3.33-12.08-4.21-12.94-.2-.46-.94-2.33,0-3.61l2.09-2.79-6.6,3.51-1.42-2.51c11.35-.1,21.47-6.5,29.28-18.52a75.9,75.9,0,0,0,7.83-16.32,58.06,58.06,0,0,1,3,12.33c-.31,1.55-3.71,17.75-11.81,25.43l-1.85,1.75,2.51-.42c.21,0,5.07-1,13.13-12A25,25,0,0,1,644,88.13ZM602,106l-.12-1.76a9.6,9.6,0,0,1-1.67,3.37,3.59,3.59,0,0,0-.9-.15,3.42,3.42,0,0,0-.93.16,9.53,9.53,0,0,1-1.68-3.38l-.12,1.76a2.28,2.28,0,0,0-.11,2.42c-.42.21-.77.41-1,.54a2,2,0,0,0-.29-1c-.75-1.25-1.57-3.91,1.43-7.64a13,13,0,0,0,2.69-4.38,13,13,0,0,0,2.69,4.38c3,3.73,2.18,6.39,1.42,7.66a2,2,0,0,0-.28,1c-.23-.13-.59-.34-1-.56A2.31,2.31,0,0,0,602,106Zm-.15,4-2.54,4.2-2.54-4.2a3.7,3.7,0,0,1,5.08,0Zm.56-18.78,1.87-1,.41-.22a8.51,8.51,0,0,0,.4.93l.07.13.17.32.27.25.09.09s4.76,4.63,3.32,9.21a7.31,7.31,0,0,1-1.38,2.41,13.08,13.08,0,0,0-2.75-5.42l0-.05,0,0-.06-.07,0,0,0,0a9.4,9.4,0,0,1-2.34-5.18l-.06-.7-.09-1Zm-6,.58-.06.7a9.38,9.38,0,0,1-2.34,5.18l0,0,0,0-.06.06,0,0,0,.05a13.08,13.08,0,0,0-2.75,5.42,7.31,7.31,0,0,1-1.38-2.41c-1.43-4.53,3.18-9.07,3.32-9.21l.09-.08.27-.26.17-.33.06-.11a6.77,6.77,0,0,0,.41-.94l.41.22,1.87,1,.24-.43Zm5-2.42.25.44H597l.25-.44,2.06-3.63Z"/><path class="cls-6" d="M596.59,100.27a13,13,0,0,0,2.69-4.38,13,13,0,0,0,2.69,4.38c3,3.73,2.18,6.39,1.42,7.66a2,2,0,0,0-.28,1c-.23-.13-.59-.34-1-.56A2.31,2.31,0,0,0,602,106l-.12-1.76a9.6,9.6,0,0,1-1.67,3.37,3.59,3.59,0,0,0-.9-.15,3.42,3.42,0,0,0-.93.16,9.53,9.53,0,0,1-1.68-3.38l-.12,1.76a2.28,2.28,0,0,0-.11,2.42c-.42.21-.77.41-1,.54a2,2,0,0,0-.29-1C594.41,106.66,593.59,104,596.59,100.27Zm2.69,8.7a8.09,8.09,0,0,1,2.54,1l-2.54,4.2-2.54-4.2A8.09,8.09,0,0,1,599.28,109ZM644,88.13c-.68,1.12-7.84,12.66-17.09,16.18l-2.78,1.06,3,.44a11.2,11.2,0,0,0,1.58.11c4.19,0,9.36-2,11.74-3-.46,2.56-1.95,8.11-6.38,10.8-.6.25-6.92,2.87-12.52,2.87a12.78,12.78,0,0,1-3.79-.51l-4.16-1.3,3.46,2.66c2,1.54,6,4.34,7.81,5.61a14.69,14.69,0,0,1-7.69,2c-6.83,0-13.11-3.83-13.17-3.87l-1.78-1.1.63,2c.12.37,2.64,8.39,4.57,12.69a7.89,7.89,0,0,1-4.34-1.34l-1.52-1.31.25,2c0,.14.37,3.35-2.5,7.11-2.87-3.76-2.51-7-2.5-7.11l.27-2-1.54,1.33a7.89,7.89,0,0,1-4.33,1.34c1.92-4.3,4.44-12.32,4.56-12.69l.63-2-1.78,1.1c-.06,0-6.32,3.87-13.17,3.87a14.69,14.69,0,0,1-7.69-2c1.81-1.27,5.8-4.07,7.81-5.61l3.46-2.66-4.16,1.3a12.78,12.78,0,0,1-3.79.51c-5.6,0-11.92-2.62-12.52-2.87-4.43-2.69-5.92-8.24-6.38-10.8,2.38,1,7.55,3,11.74,3a11.2,11.2,0,0,0,1.58-.11l2.95-.44-2.78-1.06c-9.25-3.52-16.41-15.06-17.09-16.18A25,25,0,0,1,554.11,76c8.06,11,12.92,11.93,13.13,12l2.52.42-1.85-1.75c-8.11-7.68-11.51-23.88-11.82-25.43A58.69,58.69,0,0,1,559,48.85a75.68,75.68,0,0,0,7.83,16.32c7.81,12,17.93,18.42,29.28,18.52l-1.42,2.51-6.6-3.51,2.09,2.79c1,1.29.22,3.16,0,3.61a18,18,0,0,0-2.86,3.76A11.37,11.37,0,0,0,586,102c1.21,3.86,4.83,6.59,7.81,7.86l.08,0,.09,0a1.44,1.44,0,0,0,.84-.09l3.34,5.53,1.09,1.93,1.08-1.91,3.35-5.55a1.15,1.15,0,0,0,.53.12l.31,0,.09,0,.09,0c3-1.27,6.59-4,7.8-7.86,2-6.47-3.33-12.08-4.21-12.94-.2-.46-.94-2.33,0-3.61l2.09-2.79-6.6,3.51-1.42-2.51c11.35-.1,21.47-6.5,29.28-18.52a75.9,75.9,0,0,0,7.83-16.32,58.06,58.06,0,0,1,3,12.33c-.31,1.55-3.71,17.75-11.81,25.43l-1.85,1.75,2.51-.42c.21,0,5.07-1,13.13-12A25,25,0,0,1,644,88.13Z"/><path class="cls-9" d="M646.69,158.93l-.31-.76q-.18-8-.53-16a4,4,0,0,0-3.62-3.62c-1.58-.23-3.16-.45-4.75-.65l-1.67-.21v0l-2.7-.32c.25-2.19.51-4.37.76-6.56,0-.13,0-.27,0-.41s-.13-.25-.2-.38a4.42,4.42,0,0,0-3.53-2.25,307,307,0,0,0-61.82,0,4.43,4.43,0,0,0-3.53,2.25c-.07.13-.14.25-.2.38s0,.28.05.41c.25,2.19.51,4.37.76,6.56l-2.75.32v0l-1.62.21c-1.59.2-3.17.42-4.75.65a4,4,0,0,0-3.62,3.62q-.35,8-.52,16c-.11.25-.22.51-.32.76a3.5,3.5,0,0,0,.6,3.66,4.87,4.87,0,0,0,1,.84l.37.25q6.16,4.23,11.94,8.72l.52.4.65-.08a261.46,261.46,0,0,1,33.55-2h1.63a265.81,265.81,0,0,1,29.56,2l.64.09.52-.4q5.9-4.59,12.21-8.9a4.82,4.82,0,0,0,1.08-.92A3.5,3.5,0,0,0,646.69,158.93Z"/><path class="cls-6" d="M567.15,157.54c-.1-.83-.2-1.67-.29-2.51h0c-.2-1.69-.4-3.38-.59-5.07h0c-1.55.17-3.09.37-4.64.57l.33,2.5,1.58-.2c.15,1.21.31,2.42.46,3.64l-2.29.3a.76.76,0,0,1-.64-.19,1,1,0,0,1-.34-.69q-.72-5.13-1.42-10.26a1,1,0,0,1,.14-.78.78.78,0,0,1,.6-.35l1.92-.26c.32,0,.49.13.54.5l.32,2.5c1-.62,1.94-1.24,2.93-1.85,0-.17,0-.34-.07-.52h0l-.3-2.5c.24-.46.47-.92.71-1.37-1.45.16-2.89.34-4.33.52l-1.82.24-1.17.16a2.8,2.8,0,0,0-2.38,1.72,4.11,4.11,0,0,0-.24,2.19q.81,5.35,1.61,10.72a4.3,4.3,0,0,0,.84,2,2.64,2.64,0,0,0,2.62,1c2-.28,4-.54,6.07-.78h0l.8-.09Z"/><path class="cls-6" d="M605.81,139.39l-.86,1.24-.3,15.12c.26.43.51.86.77,1.28l-3.73-.06c0-1.22,0-2.44,0-3.66q-1.07-3.21-2.17-6.4,0,5,0,10.05l-3.73,0,.77-1.27-.15-15.12c-.27-.42-.55-.83-.84-1.25,1.29,0,2.58,0,3.87,0q1.18,3.54,2.32,7.11l.06-7.1Z"/><path class="cls-6" d="M594,157c-.28-.41-.55-.83-.82-1.25q-1.75-8.16-3.69-16.29l-.85,0-2.8.11-1.07,0,.88,1.2q-1.18,7.65-2.2,15.29l-.72,1.31c1.2-.08,2.4-.14,3.61-.2l-.06-1.26c.08-.57.15-1.13.23-1.7,1.16-.05,2.31-.1,3.47-.13.12.55.24,1.11.37,1.67s0,.84,0,1.26Zm-7.06-5.5c.3-2.38.6-4.76.92-7.13q.75,3.51,1.47,7Z"/><path class="cls-6" d="M618.59,157.64l-.7-1.31q-1-8.29-2.23-16.56l-.85-.05-2.79-.14-1.07,0,.76,1.28q-1.85,7.5-3.55,15l-.83,1.24,3.61.13c0-.42,0-.84,0-1.26l.39-1.67,3.46.17c.08.57.15,1.13.22,1.7,0,.42,0,.84-.07,1.26Zm-6.53-6.1c.5-2.35,1-4.69,1.54-7q.43,3.57.84,7.15C613.65,151.61,612.85,151.57,612.06,151.54Z"/><path class="cls-6" d="M642.46,160.36l-.59-1.37q-.3-8.34-.79-16.69l-.84-.12-2.78-.38-1.07-.14.66,1.34q-2.5,7.32-4.85,14.66c-.31.39-.62.78-.94,1.16l3.6.45c0-.42.1-.84.16-1.26s.35-1.08.53-1.63l3.44.47c0,.58,0,1.15.07,1.72l-.18,1.25C640.07,160,641.27,160.17,642.46,160.36Zm-6-6.65q1.06-3.44,2.15-6.87.14,3.6.22,7.2Z"/><path class="cls-6" d="M557.67,155.92l.42,2.84-.6,1.37c1.19-.18,2.39-.36,3.58-.52-.05-.42-.11-.84-.17-1.26"/><path class="cls-6" d="M628.76,140.8a3.05,3.05,0,0,1,2.5,1.43,3.1,3.1,0,0,1,.41,2l-1.29,11.45a3.3,3.3,0,0,1-.79,1.83,2.88,2.88,0,0,1-2.6.89c-2.23-.23-4.47-.42-6.71-.59l.89-1.2,1.2-15.07-.74-1.33C624,140.35,626.38,140.56,628.76,140.8Zm-.2,3.33c.05-.42-.16-.65-.6-.7l-2.62-.25q-.55,6.1-1.1,12.2l2.51.24a.57.57,0,0,0,.71-.56Z"/><path class="cls-6" d="M581.1,157.6q-1.29-3-2.62-5.95a3.28,3.28,0,0,0,.93-1.21,3.32,3.32,0,0,0,.31-1.64l-.39-5.74a3.1,3.1,0,0,0-.77-1.86,3,3,0,0,0-2.7-.95q-3.6.28-7.22.66l1,1.17,1.53,15-.66,1.34c1.23-.13,2.47-.25,3.71-.36-.17-1.92-.35-3.83-.52-5.75l1.38-.12.73-.06c.77,1.88,1.54,3.76,2.29,5.65Zm-7.67-7.93c-.2-2.15-.39-4.31-.59-6.46l2.69-.23c.45,0,.69.15.72.58.14,1.73.28,3.46.41,5.2q.06.63-.6.69Z"/><path class="cls-6" d="M572.22,131.09l.09,1.07-2.48.24.18,1.88,1.84-.17c0,.36.06.73.1,1.09l-1.83.18c.09,1,.19,2,.29,3l-1.6.16c.1-.18.19-.36.29-.53-.2-2-.41-4-.61-6l-.4-.47C569.47,131.35,570.84,131.21,572.22,131.09Z"/><path class="cls-6" d="M574.3,131.18l-.36-.27,1.73-.14c.15,1.91.29,3.82.44,5.73,0,.11.06.16.14.15l1.24-.09c.08,0,.12-.08.11-.22-.14-1.89-.28-3.79-.41-5.68l1.72-.12-.31.31c.13,1.86.25,3.71.38,5.57a1.25,1.25,0,0,1-1.24,1.29l-1.57.12a1.28,1.28,0,0,1-1.1-.4,1.2,1.2,0,0,1-.31-.69C574.61,134.88,574.45,133,574.3,131.18Z"/><path class="cls-6" d="M584.84,130.23l-.33.52.3,6,.36.48-1.59.08c0-.48-.05-1-.08-1.46-.35-.83-.7-1.66-1.06-2.49l.22,4-1.59.1.3-.53-.36-6-.37-.48,1.59-.09c.38.92.75,1.85,1.13,2.77l-.15-2.82Z"/><path class="cls-6" d="M589.51,130.05a1.2,1.2,0,0,1,1.37,1.18c0,1.53.09,3.06.13,4.59a1.2,1.2,0,0,1-1.28,1.26l-2.88.11.32-.52-.24-6c-.12-.17-.25-.33-.37-.49Zm.1,1.32c0-.16-.1-.25-.29-.24l-1.09,0,.18,4.88,1.07,0a.24.24,0,0,0,.27-.26C589.7,134.29,589.65,132.83,589.61,131.37Z"/><path class="cls-6" d="M595.79,129.91c.48,2.17,1,4.35,1.42,6.52l.34.51H596v-.51c0-.22-.09-.44-.14-.67l-1.47,0c0,.23-.09.45-.13.68s0,.33,0,.5l-1.54,0,.33-.51q.6-3.28,1.23-6.56Zm-1.19,4.77h1l-.54-2.82C594.91,132.79,594.76,133.74,594.6,134.68Z"/><path class="cls-6" d="M599.24,131.27a1.52,1.52,0,0,1,.23-.84,1.11,1.11,0,0,1,1-.53h1.22a1.36,1.36,0,0,1,1.12.48,1.43,1.43,0,0,1,.29.92v.33c-.44.18-.87.37-1.29.56v-1c0-.15-.06-.22-.19-.22h-.79a.33.33,0,0,0-.26.11.39.39,0,0,0-.1.29c0,1.36,0,2.73,0,4.09a.41.41,0,0,0,.1.29.33.33,0,0,0,.25.11h.78c.13,0,.19-.07.2-.21v-1l1.28,0c0,.3,0,.6,0,.9a1.39,1.39,0,0,1-.3.91,1.28,1.28,0,0,1-1.1.46h-1.2a1.12,1.12,0,0,1-1-.54,1.57,1.57,0,0,1-.22-.84Z"/><path class="cls-6" d="M606.87,130l-.36.49q-.06,3-.14,6l.32.52-1.93-.05c.12-.16.23-.33.34-.5l.12-6-.33-.5Z"/><path class="cls-6" d="M610.36,130.1l.43-.48.81,0-.89.68Z"/><path class="cls-6" d="M611.4,130.14a1.15,1.15,0,0,1,1,.58,1.61,1.61,0,0,1,.19.85c-.06,1.42-.13,2.85-.19,4.27a1.54,1.54,0,0,1-.26.83,1.12,1.12,0,0,1-1.06.5l-1.48-.06a1.11,1.11,0,0,1-1-.57,1.59,1.59,0,0,1-.19-.85c0-1.42.09-2.85.13-4.28a1.68,1.68,0,0,1,.25-.83,1.16,1.16,0,0,1,1.08-.5Zm-.06,1.47a.49.49,0,0,0-.09-.3.35.35,0,0,0-.26-.11c-.26,0-.52,0-.79,0a.27.27,0,0,0-.26.1.41.41,0,0,0-.12.29c0,1.36-.09,2.72-.14,4.08a.44.44,0,0,0,.09.29.3.3,0,0,0,.25.12l.78,0a.33.33,0,0,0,.26-.1.38.38,0,0,0,.11-.29C611.23,134.33,611.28,133,611.34,131.61Z"/><path class="cls-6" d="M618.6,130.51l-.38.48c-.12,2-.25,4-.37,6l.3.53-1.59-.1.09-1.46-.78-2.6c-.08,1.34-.15,2.67-.23,4l-1.59-.09.36-.49c.1-2,.21-4,.31-6l-.32-.52,1.59.09c.28,1,.55,1.92.82,2.88.05-.94.11-1.89.16-2.83Z"/><path class="cls-6" d="M620.23,132a1.64,1.64,0,0,1,.28-.82,1.16,1.16,0,0,1,1.1-.46l1.22.09a1.34,1.34,0,0,1,1.08.56,1.38,1.38,0,0,1,.22.93c0,.11,0,.22,0,.33l-1.33.47c0-.33.05-.66.08-1,0-.14-.05-.22-.18-.23l-.79-.06a.32.32,0,0,0-.27.09.41.41,0,0,0-.12.28l-.3,4.08a.4.4,0,0,0,.08.29.31.31,0,0,0,.24.13l.78.06c.13,0,.2-.06.21-.2,0-.33,0-.67.08-1l1.27.11-.08.9a1.46,1.46,0,0,1-.36.89,1.32,1.32,0,0,1-1.14.38l-1.19-.09a1.13,1.13,0,0,1-1-.61,1.64,1.64,0,0,1-.17-.86Z"/><path class="cls-6" d="M630,134.2c0,.27-.23.49-.62.64q.52.33.48.72c-.05.57-.11,1.14-.17,1.71a1.26,1.26,0,0,1-.33.73,1.24,1.24,0,0,1-1.1.35l-2.87-.27c.13-.15.25-.31.38-.47l.54-6-.3-.54,2.93.28a1.27,1.27,0,0,1,1,.56,1.21,1.21,0,0,1,.18.79C630.07,133.2,630,133.7,630,134.2Zm-2.63-.12,1.07.11c.19,0,.29-.06.3-.23,0-.43.09-.86.13-1.29,0-.16-.07-.26-.25-.28l-1.09-.1C627.44,132.89,627.38,133.49,627.33,134.08Zm1.22,1.46c0-.17-.07-.26-.25-.28l-1.07-.1c-.07.66-.13,1.33-.19,2l1.07.1c.18,0,.28-.06.29-.23Z"/><path class="cls-6" d="M586.58,185.48a19.18,19.18,0,0,0,11.78,4.76V171.9h-5.18A19.23,19.23,0,0,1,586.58,185.48Z"/><path class="cls-6" d="M605.38,170.05a19.14,19.14,0,0,1,2.56-8.68q-4-.17-7.74-.19v8.87Z"/><path class="cls-6" d="M598.36,170.05v-8.88c-2.68,0-5.28.06-7.77.15a19.09,19.09,0,0,1,2.59,8.73Z"/><path class="cls-6" d="M591.33,170.05a17.29,17.29,0,0,0-2.86-8.65c-2.13.1-4.18.21-6.13.35a19.12,19.12,0,0,0-2.33,8.3Z"/><path class="cls-6" d="M613.32,184.19a19.18,19.18,0,0,0,5.23-12.29H607.23A17.34,17.34,0,0,0,613.32,184.19Z"/><path class="cls-6" d="M605.38,171.9H600.2v18.34A19.18,19.18,0,0,0,612,185.48,19.23,19.23,0,0,1,605.38,171.9Z"/><path class="cls-6" d="M585.24,184.19a17.34,17.34,0,0,0,6.09-12.29H580A19.18,19.18,0,0,0,585.24,184.19Z"/><path class="cls-6" d="M618.55,170.05a19.16,19.16,0,0,0-2.24-8.14q-3.16-.27-6.26-.44a17.23,17.23,0,0,0-2.82,8.58Z"/><path class="cls-9" d="M622.77,171a23.3,23.3,0,0,0-1.63-8.58c-1.62-.19-3.23-.34-4.83-.48a19.16,19.16,0,0,1,2.24,8.14H607.23a17.23,17.23,0,0,1,2.82-8.58l-2.11-.1a19.14,19.14,0,0,0-2.56,8.68H600.2v-8.87h-1.84v8.88h-5.18a19.09,19.09,0,0,0-2.59-8.73l-2.12.08a17.29,17.29,0,0,1,2.86,8.65H580a19.12,19.12,0,0,1,2.33-8.3c-1.68.12-3.29.25-4.82.39A23.49,23.49,0,1,0,622.77,171Zm-4.22.93a19.18,19.18,0,0,1-5.23,12.29,17.34,17.34,0,0,1-6.09-12.29Zm-18.35,0h5.18a19.23,19.23,0,0,0,6.6,13.58,19.18,19.18,0,0,1-11.78,4.76Zm-7,0h5.18v18.34a19.18,19.18,0,0,1-11.78-4.76A19.23,19.23,0,0,0,593.18,171.9Zm-1.85,0a17.34,17.34,0,0,1-6.09,12.29A19.18,19.18,0,0,1,580,171.9Z"/></g></g></g></svg>